<?xml version="1.0" encoding="utf-8"?>
<!-- Svg Vector Icons : http://www.sfont.cn -->
<!DOCTYPE svg PUBLIC "-//W3C//DTD SVG 1.1//EN" "http://www.w3.org/Graphics/SVG/1.1/DTD/svg11.dtd">
<svg version="1.1" xmlns="http://www.w3.org/2000/svg" xmlns:xlink="http://www.w3.org/1999/xlink" x="0px" y="0px" viewBox="0 0 1000 1000" enable-background="new 0 0 1000 1000" xml:space="preserve">
<metadata> Svg Vector Icons : http://www.sfont.cn </metadata>
<g><path d="M828.7,454.7c0,0,60.5,85.7,81,161.6c8.9,33.3,12.8,66.9,9.2,99.9c-3.9,34.9-18.5,49.9-18.5,49.9s-7,13-16.2,14.3c-2.3,0.3-7.3-1.1-9.2-2.4c-23.9-15-44-59.4-44-59.4s-2.2-6.6-4.6-7.1c-2.3-0.6-4.6,4.7-4.6,4.7s-8.9,32.5-20.8,54.6c-18,33.6-41.6,61.9-41.6,61.9s-4,2.2-4.6,4.7c-0.5,2.2,2.3,4.7,2.3,4.7s42.3,19.4,64.7,38.1c20.3,16.9,18.5,33.2,18.5,33.2s2.1,24.4-18.5,42.9c-18.6,16.7-56.1,27.6-85.5,30.9c-47.6,5.3-107.4,2.5-152.7-7.1c-32.4-6.8-64.6-11.6-83.5-14c-18.9,2.4-51.2,7.1-83.5,14c-45.3,9.7-105.1,12.4-152.7,7.1c-29.4-3.3-66.9-14.2-85.5-30.9c-20.6-18.5-18.5-42.9-18.5-42.9s-1.8-16.3,18.5-33.2c22.4-18.7,64.7-38.1,64.7-38.1s2.8-2.5,2.3-4.7c-0.6-2.5-4.6-4.7-4.6-4.7S217,804.5,199,770.9c-11.9-22.2-20.8-54.6-20.8-54.6s-2.4-5.4-4.6-4.7c-2.4,0.5-4.6,7.1-4.6,7.1S148.8,763,125,778c-2,1.4-6.9,2.7-9.2,2.4c-9.1-1.3-16.2-14.3-16.2-14.3s-14.6-15-18.5-49.9c-3.6-33,0.3-66.6,9.2-99.9c20.5-75.9,81-161.6,81-161.6s2.7-0.3,2.3-2.4c-0.6-2.6-4.6-7.1-4.6-7.1s-10.7-26.2-4.6-57.1c5.5-28.5,27.7-61.9,27.7-61.9s1.6-18.9,6.2-45.2c5.7-32.4,15.9-76.1,33.1-109.3c36.6-70.8,97.2-109.5,97.2-109.5S367.4,10,483.2,10c129.3,0,188.2,52.2,188.2,52.2s60.6,38.7,97.2,109.5c17.2,33.2,27.4,76.9,33.1,109.3c4.6,26.3,6.2,45.2,6.2,45.2s22.3,33.4,27.7,61.9c6.1,30.9-4.6,57.1-4.6,57.1s-4,4.5-4.6,7.1C826,454.4,828.7,454.7,828.7,454.7z"/></g>
</svg>